<svg width="29" height="33" viewBox="0 0 29 33" fill="none" xmlns="http://www.w3.org/2000/svg">
<g filter="url(#filter0_d_4528_15156)">
<g clip-path="url(#clip0_4528_15156)">
<path d="M12.6663 8.83301H22.6663C23.5872 8.83301 24.333 9.57884 24.333 10.4997V22.1663H22.6663V10.4997H12.6663V8.83301ZM10.1663 12.1663H19.333C20.2538 12.1663 20.9997 12.9122 20.9997 13.833V25.4997C20.9997 26.4205 20.2538 27.1663 19.333 27.1663H10.1663C9.24551 27.1663 8.49967 26.4205 8.49967 25.4997V13.833C8.49967 12.9122 9.24551 12.1663 10.1663 12.1663ZM10.1663 25.4997H19.333V13.833H10.1663V25.4997Z" fill="black"/>
</g>
</g>
<defs>
<filter id="filter0_d_4528_15156" x="-4" y="-5" width="39" height="42" filterUnits="userSpaceOnUse" color-interpolation-filters="sRGB">
<feFlood flood-opacity="0" result="BackgroundImageFix"/>
<feColorMatrix in="SourceAlpha" type="matrix" values="0 0 0 0 0 0 0 0 0 0 0 0 0 0 0 0 0 0 127 0" result="hardAlpha"/>
<feOffset dy="-2"/>
<feGaussianBlur stdDeviation="3"/>
<feColorMatrix type="matrix" values="0 0 0 0 0 0 0 0 0 0 0 0 0 0 0 0 0 0 0.25 0"/>
<feBlend mode="normal" in2="BackgroundImageFix" result="effect1_dropShadow_4528_15156"/>
<feBlend mode="normal" in="SourceGraphic" in2="effect1_dropShadow_4528_15156" result="shape"/>
</filter>
<clipPath id="clip0_4528_15156">
<rect width="20" height="20" fill="white" transform="matrix(-1 0 0 1 26 8)"/>
</clipPath>
</defs>
</svg>
