<svg width="27" height="30" viewBox="0 0 27 30" fill="none" xmlns="http://www.w3.org/2000/svg">
<rect width="27" height="30" fill="#DEDDDD"/>
<path d="M19.9999 6.5H10.2142C9.66195 6.5 9.21423 6.94772 9.21423 7.5V21.5C9.21423 22.0523 9.66195 22.5 10.2142 22.5H19.9999C20.5522 22.5 20.9999 22.0523 20.9999 21.5V7.5C20.9999 6.94772 20.5522 6.5 19.9999 6.5Z" stroke="#FFFCFC"/>
<path d="M16.7857 9.5H7C6.44772 9.5 6 9.94772 6 10.5V24.5C6 25.0523 6.44772 25.5 7 25.5H16.7857C17.338 25.5 17.7857 25.0523 17.7857 24.5V10.5C17.7857 9.94772 17.338 9.5 16.7857 9.5Z" stroke="#FFFAFA"/>
</svg>
